inDegrees=no
num_controls=7
num_derivatives=13
num_iterations=314
num_multipliers=7
num_parameters=0
num_slacks=7
num_states=26
objective=0.404330
objective_accelerations=0.000000
objective_balance=0.003217
objective_effort=0.021757
objective_height=0.232815
objective_ligament=0.146541
solver_duration=3952.341431
status=Solve_Succeeded
success=true
DataType=double
version=3
OpenSimVersion=4.5
endheader
time	/jointset/ground_pelvis/pelvis_tilt/value	/jointset/ground_pelvis/pelvis_tx/value	/jointset/ground_pelvis/pelvis_ty/value	/jointset/hip_l/hip_flexion_l/value	/jointset/hip_l/hip_adduction_l/value	/jointset/hip_l/hip_rotation_l/value	/jointset/back/lumbar_extension/value	/jointset/patellofemoral_l/patellar_flexion_l/value	/jointset/knee_l/knee_flexion_l/value	/jointset/knee_l/knee_adduction_l/value	/jointset/knee_l/knee_rotation_l/value	/jointset/ankle_l/ankle_angle_l/value	/jointset/subtalar_l/subtalar_angle_l/value	/jointset/ground_pelvis/pelvis_tilt/speed	/jointset/ground_pelvis/pelvis_tx/speed	/jointset/ground_pelvis/pelvis_ty/speed	/jointset/hip_l/hip_flexion_l/speed	/jointset/hip_l/hip_adduction_l/speed	/jointset/hip_l/hip_rotation_l/speed	/jointset/back/lumbar_extension/speed	/jointset/patellofemoral_l/patellar_flexion_l/speed	/jointset/knee_l/knee_flexion_l/speed	/jointset/knee_l/knee_adduction_l/speed	/jointset/knee_l/knee_rotation_l/speed	/jointset/ankle_l/ankle_angle_l/speed	/jointset/subtalar_l/subtalar_angle_l/speed	/forceset/tau_hip_flexion_l	/forceset/tau_hip_adduction_l	/forceset/tau_hip_rotation_l	/forceset/tau_knee_flexion_l	/forceset/tau_ankle_angle_l	/forceset/tau_subtalar_angle_l	/forceset/tau_lumbar_extension	lambda_cid13_p0	lambda_cid13_p1	lambda_cid13_p2	lambda_cid13_p3	lambda_cid13_p4	lambda_cid13_p5	lambda_cid14_p0	/jointset/ground_pelvis/pelvis_tilt/accel	/jointset/ground_pelvis/pelvis_tx/accel	/jointset/ground_pelvis/pelvis_ty/accel	/jointset/hip_l/hip_flexion_l/accel	/jointset/hip_l/hip_adduction_l/accel	/jointset/hip_l/hip_rotation_l/accel	/jointset/back/lumbar_extension/accel	/jointset/patellofemoral_l/patellar_flexion_l/accel	/jointset/knee_l/knee_flexion_l/accel	/jointset/knee_l/knee_adduction_l/accel	/jointset/knee_l/knee_rotation_l/accel	/jointset/ankle_l/ankle_angle_l/accel	/jointset/subtalar_l/subtalar_angle_l/accel	gamma_cid13_p0	gamma_cid13_p1	gamma_cid13_p2	gamma_cid13_p3	gamma_cid13_p4	gamma_cid13_p5	gamma_cid14_p0
1	-0.0833793266687148	-0.05352649781167324	0.8685877966843374	0.6904531179270579	-0.2817300630183347	-0.2287205333485099	-0.9597926686232844	0.537636551323469	0.5376365513233584	-0.06216651183298605	-0.1743674638503269	-0.01729613526561961	0.0080896113135677	0.004936628208760643	-0.001008914624693388	-7.899191598498995e-05	-0.001824505751080851	0.001171340126392255	-0.001331705083790656	0.004646200400218092	0.003291341115416778	0.003291341115415917	0.004044071223693008	-0.001017059007683092	0.001080858623866478	0.001598631503291863	-0.3062046022406054	0.05413673100614202	-0.006720447238077771	-0.08401629888716325	0.05339933297626962	0.05568471689461209	0.3603151588190155	-27.62839225789574	-21.01644850301502	4.803953525053352	7.75720650108331	-711.1293094383377	-72.81136244900766	-22.46111108988877	1.133328609970106	-0.001267658693269696	0.1739982731943613	-1.470537966979245	0.07708329765299543	0.02098174719435659	-0.6679964435771198	-0.3246211308589402	-0.3246211308589563	0.02646320159204538	0.1481248934795511	0.03193932494748124	0.09005277841626375	-1.149629907371572e-10	-1.764404106653786e-09	1.426663227202046e-09	-7.043464344462401e-10	-2.609955353734589e-09	-8.679709031211613e-10	-3.378627808375634e-10
1.01	-0.08327614127128533	-0.05353670321097445	0.8685953540786076	0.6903642145737393	-0.2817156109549575	-0.2287331306066269	-0.9597761963069388	0.537653000245067	0.5376530002449277	-0.06212690015713821	-0.1743713397399853	-0.01728464204585056	0.008108639722090281	0.01545077840632384	-0.001035745034307528	0.001561242478596578	-0.01572099924972985	0.001603316571209427	-0.001240482829732336	-0.001049349239386114	-3.799526223757186e-05	-3.799526223750003e-05	0.003658192925345484	0.0001124571184514321	0.001126741929776768	0.002056991699929549	-0.3062071956080896	0.05393672475963466	-0.006737122714984827	-0.0844505584820243	0.05385939923983745	0.05558034399102341	0.3607352063630308	-27.50893806314069	-20.98743251507855	4.794070525712226	7.749948976170635	-711.4650126858152	-72.79100582767639	-22.46097699319524	0.9730075623627424	-0.003927307488265599	0.1546523874460809	-1.31392990788372	0.008891540129668703	-0.004718825913200863	-0.4749760403532675	-0.3425555281425054	-0.3425555281423787	-0.1041244280409677	0.07595211718419416	-0.02274386809127438	0.001218986871970569	-1.066204311322202e-09	-3.00321881191715e-09	3.116640895476845e-09	1.946249349556837e-09	2.986465595726365e-09	-1.048672969656271e-10	-6.620291234880138e-10
1.02	-0.08307530450433785	-0.05354728422945048	0.8686184370897949	0.6901434013121179	-0.2817003117826872	-0.2287463979002905	-0.9598076078502221	0.5376350626755035	0.5376350626753377	-0.06209774948076693	-0.1743678030393838	-0.01727542133332025	0.008127750001895929	0.02446690211242363	-0.001084038459658665	0.003026131467455627	-0.02820648741141813	0.001340761905376718	-0.001465712192667308	-0.004930571527030702	-0.003585957116845142	-0.003585957116844056	0.001951871327287517	0.0004654590447378797	0.0006263571755233653	0.001615005759946722	-0.3062097889755786	0.05373671851311627	-0.006753798191868554	-0.0848848180768839	0.05431946550340372	0.05547597108742258	0.3611552539070443	-27.39212658317997	-20.95812089308141	4.784331266077688	7.74355682299309	-711.842256000753	-72.77422047425711	-22.46123588042172	0.8337233116774793	-0.00556026184073487	0.1389291920498471	-1.188336899587075	-0.06182292447695686	-0.04230857620430592	-0.3051309731851428	-0.368346226249593	-0.3683462262495929	-0.2376254583499986	-0.0071779464900515	-0.0773142870853407	-0.09001644890784359	-8.496733941239054e-10	-1.02935339830011e-09	7.493380934532985e-10	1.824893525661659e-09	5.029818161527933e-09	1.747297317161532e-10	-3.100421276392016e-10
1.03	-0.08279493891831781	-0.05355857751118299	0.8686546464325051	0.6898101891756995	-0.2816901337240783	-0.2287621983857207	-0.9598646949547508	0.5375827717292836	0.5375827717291213	-0.06209006992234804	-0.1743631681402266	-0.01727324968701134	0.008139165122502906	0.03102329365317117	-0.001191223465807396	0.004118798548476261	-0.03763341428072531	0.0006781154217758739	-0.001620933649012631	-0.005756664537155838	-0.006680182808497588	-0.006680182808496112	-0.0004100529020224844	0.0004731616311010231	-0.000215041389196731	0.0006418136007150407	-0.3064528839958697	0.05368104376892791	-0.006747747770356049	-0.08470649168955263	0.05412321915562871	0.05556778305804426	0.3620354966637537	-27.44682156736753	-20.9892822030945	4.790286189607604	7.750148701875607	-711.7906217920864	-72.82069440327982	-22.46206145902852	0.4791590689086487	-0.01578812286913283	0.07989610673106115	-0.6994914390636016	-0.07099565716381831	0.0088891246718858	0.1381792615449199	-0.2511533547815972	-0.2511533547815558	-0.2345898213896253	0.006490116599095249	-0.091004889400895	-0.1049012525846567	-6.212264336829149e-10	9.772944655096049e-10	-1.659365529695764e-09	1.675252481277708e-09	7.03691492749622e-09	4.49393019811464e-10	4.884439207185192e-11
